<?xml version="1.0" standalone="no"?>
<!DOCTYPE svg PUBLIC "-//W3C//DTD SVG 20010904//EN"
 "http://www.w3.org/TR/2001/REC-SVG-20010904/DTD/svg10.dtd">
<svg version="1.0" xmlns="http://www.w3.org/2000/svg"
 width="1194.000000pt" height="769.000000pt" viewBox="0 0 1194.000000 769.000000"
 preserveAspectRatio="xMidYMid meet">

<g transform="translate(0.000000,769.000000) scale(0.100000,-0.100000)"
fill="#000000" stroke="none">
<path d="M7090 7533 c-146 -11 -273 -43 -715 -180 -112 -35 -116 -36 -245 -83
-63 -23 -205 -66 -315 -95 -110 -29 -252 -69 -315 -88 -63 -20 -198 -56 -300
-82 -102 -25 -248 -64 -325 -85 -77 -22 -194 -53 -260 -69 -66 -16 -178 -46
-250 -66 -71 -21 -169 -47 -217 -60 -88 -23 -123 -42 -168 -90 -25 -26 -25
-29 -23 -183 2 -87 9 -233 18 -327 8 -93 19 -304 25 -468 6 -166 15 -307 20
-318 13 -24 1 -30 -135 -59 -168 -37 -672 -211 -843 -291 -93 -43 -161 -89
-241 -164 -94 -88 -153 -188 -241 -411 -28 -71 -57 -144 -65 -162 -8 -18 -15
-42 -15 -52 0 -11 -9 -29 -21 -41 -16 -16 -23 -18 -35 -8 -8 6 -14 17 -14 24
0 6 -16 44 -35 84 -115 235 -346 425 -600 492 -186 49 -526 30 -765 -42 -393
-119 -651 -370 -747 -726 -22 -82 -26 -119 -26 -228 0 -112 4 -143 27 -225 41
-145 107 -273 175 -340 31 -30 73 -61 93 -68 21 -7 84 -35 141 -62 l104 -48 6
-198 c10 -272 9 -475 -2 -634 -6 -74 -13 -184 -16 -245 -3 -60 -10 -166 -15
-235 -5 -69 -10 -189 -10 -268 0 -182 -16 -245 -79 -322 -25 -30 -48 -57 -51
-60 -16 -13 -107 -152 -138 -210 -93 -174 -87 -152 -90 -297 -5 -178 7 -213
101 -311 87 -89 127 -113 242 -143 166 -43 430 -25 614 43 115 42 250 80 381
107 74 16 182 47 240 69 297 114 435 164 530 192 216 64 684 242 832 316 72
36 267 118 333 139 22 7 90 31 150 53 61 22 173 63 250 90 77 28 194 72 260
97 66 26 143 55 170 65 28 9 237 88 465 175 228 86 444 168 478 181 35 14 83
33 105 43 255 114 772 296 927 326 67 13 315 84 420 120 139 49 318 124 449
190 107 53 224 94 336 115 89 17 220 56 315 93 105 41 231 80 330 103 41 9
134 36 205 60 148 49 221 67 351 85 86 12 98 11 220 -14 102 -20 183 -28 385
-37 295 -14 329 -10 515 60 230 86 353 178 535 400 30 36 56 67 60 70 16 14
90 123 112 166 34 65 67 150 67 173 0 36 80 173 158 269 102 128 146 202 227
387 37 83 70 159 75 170 63 138 114 388 105 510 -4 44 -8 186 -9 315 -2 206
-5 245 -24 320 -26 97 -53 164 -97 235 -17 28 -34 58 -38 68 -20 54 -133 204
-216 288 -169 168 -350 254 -587 278 -124 13 -562 -4 -649 -24 -78 -18 -263
-86 -370 -135 -106 -49 -249 -121 -259 -131 -6 -5 -22 -9 -38 -9 -21 0 -34 10
-58 45 -49 71 -75 80 -215 79 -145 -1 -220 -18 -491 -110 -107 -36 -202 -64
-211 -62 -20 4 -26 15 -53 103 -12 39 -28 84 -35 100 -8 17 -27 62 -44 100
-16 39 -50 108 -76 155 -114 212 -257 512 -285 599 -62 193 -152 326 -255 378
-41 21 -133 44 -163 41 -9 -1 -37 -3 -62 -5z m54 -182 c20 -22 18 -60 -4 -72
-8 -4 -53 -16 -100 -28 -47 -11 -109 -27 -137 -35 -121 -36 -152 -45 -233 -71
-137 -42 -250 -75 -261 -75 -5 0 -53 -16 -105 -36 -106 -39 -124 -37 -124 20
1 53 28 72 175 117 39 12 95 32 126 45 49 20 88 32 244 75 17 4 57 15 90 25
87 25 224 52 271 53 29 1 46 -5 58 -18z m-1086 -297 c12 -8 22 -21 22 -29 0
-23 -30 -45 -58 -44 -27 1 -94 -14 -202 -46 -30 -9 -68 -20 -85 -25 -16 -4
-66 -18 -110 -30 -78 -22 -127 -34 -191 -46 -42 -8 -80 26 -64 56 20 38 65 55
309 117 258 65 340 75 379 47z m-850 -226 c7 -7 12 -27 12 -45 0 -26 -5 -34
-22 -37 -13 -3 -54 -12 -93 -20 -38 -8 -106 -22 -150 -32 -138 -29 -647 -202
-676 -230 -30 -28 -57 -31 -75 -6 -17 22 -18 96 -1 111 8 6 63 28 123 50 60
21 134 48 164 59 67 26 239 74 340 96 41 9 120 27 175 40 112 27 185 32 203
14z m2187 -40 c26 -12 40 -42 33 -74 -2 -14 -20 -21 -78 -30 -83 -13 -131 -25
-302 -78 -64 -20 -122 -36 -130 -36 -7 0 -108 -36 -223 -80 -115 -44 -217 -80
-226 -80 -8 0 -26 11 -38 24 -33 35 -22 69 33 101 47 28 215 89 356 132 441
131 517 148 575 121z m-1157 -364 c27 -19 30 -69 5 -82 -10 -5 -49 -13 -88
-17 -104 -10 -288 -52 -405 -92 -67 -22 -102 -39 -173 -80 -14 -8 -26 -9 -39
-2 -27 15 -32 35 -18 70 27 64 195 130 495 194 131 28 192 31 223 9z m-918
-284 c23 -23 26 -62 8 -78 -7 -5 -40 -13 -73 -17 -82 -9 -236 -53 -445 -125
-96 -34 -227 -78 -290 -100 -63 -21 -122 -41 -130 -44 -22 -9 -60 30 -60 61 0
15 7 35 16 44 21 23 284 128 435 173 331 100 498 127 539 86z m4989 -131 c41
-6 103 -29 161 -57 77 -37 109 -61 170 -122 201 -202 275 -494 225 -893 -18
-143 -80 -397 -105 -432 -4 -5 -11 -21 -15 -35 -15 -50 -95 -200 -160 -301
-88 -138 -203 -251 -305 -301 -120 -58 -199 -78 -311 -78 -176 0 -330 61 -444
174 -92 91 -130 170 -173 361 -55 237 -55 600 -3 795 96 353 160 486 298 623
95 95 176 156 263 198 145 71 261 91 399 68z m-688 -118 c20 -20 29 -39 29
-62 0 -28 -18 -50 -148 -178 -138 -136 -152 -154 -214 -266 -37 -66 -115 -192
-173 -280 -115 -175 -179 -295 -222 -420 -21 -61 -23 -172 -4 -240 37 -135
144 -312 301 -500 125 -150 255 -263 405 -355 185 -112 271 -106 419 32 130
120 194 152 226 113 22 -26 -2 -162 -47 -265 -51 -117 -186 -253 -297 -299
-137 -57 -273 -51 -485 19 -289 97 -439 218 -607 489 -73 117 -90 149 -177
311 -97 183 -108 185 -122 25 -9 -104 10 -515 25 -547 12 -25 88 -88 108 -88
16 0 43 -37 37 -52 -7 -17 -54 -39 -135 -64 -114 -34 -207 -67 -252 -90 -47
-24 -115 -48 -223 -79 -98 -28 -208 -66 -243 -83 -24 -13 -37 -14 -50 -6 -42
27 -27 78 47 151 32 32 61 65 65 73 3 8 15 29 26 45 36 54 89 169 106 230 15
53 18 140 22 765 2 388 5 770 5 850 2 218 -25 301 -100 313 -50 8 -83 33 -83
61 0 35 37 62 135 95 136 46 149 52 300 125 285 138 301 144 335 126 31 -16
24 -55 -18 -113 -21 -29 -46 -72 -55 -97 -16 -45 -29 -218 -47 -615 -5 -104
-12 -224 -15 -265 l-7 -75 21 25 c11 14 28 41 37 60 10 19 28 53 42 75 61 96
166 326 203 443 22 70 49 148 60 174 26 64 24 79 -16 118 -19 19 -35 42 -35
51 0 15 54 49 78 49 5 0 78 31 163 68 85 38 204 87 264 109 231 85 270 90 316
44z m-3618 -572 c43 -19 65 -78 82 -219 15 -117 13 -513 -4 -860 -25 -527 -33
-793 -28 -1010 5 -257 13 -305 60 -352 37 -36 94 -37 197 -3 111 37 192 42
263 17 31 -11 70 -34 86 -50 85 -84 79 -228 -11 -265 -18 -8 -85 -28 -148 -46
-63 -18 -243 -75 -400 -126 -157 -51 -321 -103 -365 -115 -108 -29 -207 -64
-350 -123 -191 -78 -294 -110 -311 -96 -26 21 -17 64 19 90 46 33 210 217 226
254 20 45 30 80 51 185 18 86 20 138 20 552 0 333 -4 507 -16 645 -11 132 -16
303 -15 572 0 498 -13 576 -99 602 -46 14 -60 41 -36 68 9 10 47 31 84 46 37
15 81 34 99 41 17 8 36 14 42 14 6 0 19 4 29 10 21 11 152 70 157 70 2 0 32
13 67 29 67 30 77 34 148 62 52 20 119 24 153 8z m1522 -243 c181 -73 301
-224 345 -436 5 -19 18 -82 30 -140 37 -175 42 -463 9 -604 -26 -113 -98 -334
-138 -421 -6 -11 -17 -38 -26 -60 -47 -114 -106 -216 -159 -273 -73 -79 -206
-162 -326 -202 -116 -39 -309 -46 -423 -15 -122 32 -262 115 -324 193 -21 26
-41 49 -45 52 -17 13 -66 131 -79 190 -19 86 -19 495 -1 645 26 209 71 410
112 500 5 11 17 38 26 60 108 242 340 446 599 526 49 15 86 18 195 16 121 -3
142 -6 205 -31z m-3499 -192 c16 -24 16 -27 -3 -52 -11 -15 -51 -46 -89 -69
-67 -40 -152 -120 -185 -173 -9 -14 -24 -47 -34 -75 -10 -27 -21 -54 -25 -60
-4 -5 -23 -55 -43 -110 -31 -88 -37 -119 -47 -255 -6 -85 -15 -198 -20 -250
-17 -172 -20 -326 -21 -1075 l-2 -740 48 -115 c57 -135 66 -150 122 -212 45
-49 62 -91 47 -117 -13 -22 -213 -120 -369 -181 -71 -28 -139 -55 -150 -60
-46 -22 -139 -56 -270 -100 -112 -38 -144 -45 -162 -37 -38 17 -28 52 55 175
151 227 142 161 142 1077 0 418 4 785 9 815 5 30 12 109 16 175 7 108 6 118
-8 107 -8 -7 -18 -32 -22 -55 -4 -23 -18 -85 -32 -137 -24 -93 -47 -190 -62
-260 -11 -47 -27 -110 -65 -250 -36 -132 -50 -182 -86 -290 -42 -129 -65 -209
-115 -390 -31 -116 -47 -163 -85 -265 -22 -55 -53 -146 -71 -203 -48 -149
-105 -208 -178 -181 -29 12 -65 48 -88 92 -25 46 -83 179 -83 189 0 5 -22 55
-49 111 -50 104 -110 266 -161 437 -30 103 -101 308 -113 327 -4 6 -14 65 -23
130 -17 131 -34 213 -70 348 -35 127 -32 121 -49 104 -11 -11 -12 -27 -5 -79
14 -98 30 -387 30 -545 0 -77 7 -239 16 -360 16 -219 16 -298 -2 -858 -6 -174
-5 -203 11 -245 23 -60 87 -146 131 -173 41 -25 52 -58 29 -92 -12 -19 -33
-29 -88 -42 -135 -32 -222 -66 -422 -165 -377 -186 -481 -230 -546 -230 -30 0
-79 35 -79 56 0 38 63 118 189 244 128 126 154 176 232 425 7 22 16 130 20
240 7 187 23 1207 31 1958 l3 329 -33 29 c-28 25 -40 29 -91 29 -51 0 -63 -4
-90 -29 -17 -16 -31 -38 -31 -49 0 -26 27 -167 42 -214 17 -56 2 -68 -86 -68
-59 0 -81 5 -129 30 -93 47 -137 116 -155 241 -36 242 108 461 392 598 109 52
192 71 307 70 191 -1 327 -23 414 -65 128 -63 173 -134 240 -384 35 -128 97
-287 185 -474 50 -107 91 -218 104 -286 4 -19 13 -62 21 -95 7 -33 21 -97 31
-143 14 -64 20 -80 29 -70 7 7 40 90 75 183 34 94 66 179 71 190 4 11 24 67
43 125 43 128 85 250 93 270 29 74 119 337 183 535 17 55 44 126 60 157 47 97
146 224 208 269 79 57 298 162 417 200 55 17 170 55 255 84 182 62 212 66 236
29z m704 -630 c65 -23 197 -92 255 -135 102 -74 152 -147 199 -295 49 -153 56
-216 56 -540 0 -388 -14 -458 -142 -724 -109 -226 -261 -423 -417 -540 -237
-178 -514 -157 -742 58 -161 151 -207 233 -235 418 -26 166 -26 602 -1 754 35
214 64 307 144 465 100 198 347 427 548 507 121 48 252 61 335 32z"/>
<path d="M10090 5591 c-74 -23 -106 -51 -145 -128 -57 -116 -84 -243 -95 -463
-24 -456 41 -719 185 -746 47 -8 127 20 165 59 59 61 123 225 150 387 16 96
40 373 40 464 0 146 -42 311 -96 375 -45 53 -129 75 -204 52z"/>
<path d="M7161 4709 c-77 -23 -168 -106 -210 -192 -37 -76 -56 -311 -56 -682
1 -265 8 -317 58 -398 34 -55 70 -77 125 -77 138 0 215 109 287 405 9 39 20
86 25 105 5 19 14 98 20 175 17 222 -11 540 -55 624 -24 47 -109 64 -194 40z"/>
<path d="M4475 3863 c-21 -6 -62 -31 -83 -50 -20 -19 -97 -179 -122 -253 -52
-152 -74 -359 -65 -600 10 -282 38 -425 95 -475 17 -15 40 -21 100 -23 71 -4
84 -1 141 27 107 52 132 105 160 341 6 52 17 140 25 195 25 171 28 299 10 481
-18 177 -33 237 -74 293 -40 54 -119 81 -187 64z"/>
</g>
</svg>
